<?xml version="1.0" encoding="UTF-8" standalone="no"?>
<!-- Created with Inkscape (http://www.inkscape.org/) -->

<svg
   xmlns:dc="http://purl.org/dc/elements/1.1/"
   xmlns:cc="http://creativecommons.org/ns#"
   xmlns:rdf="http://www.w3.org/1999/02/22-rdf-syntax-ns#"
   xmlns:svg="http://www.w3.org/2000/svg"
   xmlns="http://www.w3.org/2000/svg"
   xmlns:sodipodi="http://sodipodi.sourceforge.net/DTD/sodipodi-0.dtd"
   xmlns:inkscape="http://www.inkscape.org/namespaces/inkscape"
   width="48.17506mm"
   height="42.465954mm"
   viewBox="0 0 170.69903 150.46991"
   id="svg5435"
   version="1.1"
   inkscape:version="0.91 r13725"
   sodipodi:docname="edward-crown-goldenrod2.svg">
  <defs
     id="defs5437" />
  <sodipodi:namedview
     id="base"
     pagecolor="#ffffff"
     bordercolor="#666666"
     borderopacity="1.0"
     inkscape:pageopacity="0.0"
     inkscape:pageshadow="2"
     inkscape:zoom="0.87070812"
     inkscape:cx="43.744794"
     inkscape:cy="50.671419"
     inkscape:document-units="px"
     inkscape:current-layer="layer3"
     showgrid="false"
     fit-margin-top="0"
     fit-margin-left="0"
     fit-margin-right="0"
     fit-margin-bottom="0"
     inkscape:window-width="1366"
     inkscape:window-height="705"
     inkscape:window-x="-8"
     inkscape:window-y="-8"
     inkscape:window-maximized="1" />
  <metadata
     id="metadata5440">
    <rdf:RDF>
      <cc:Work
         rdf:about="">
        <dc:format>image/svg+xml</dc:format>
        <dc:type
           rdf:resource="http://purl.org/dc/dcmitype/StillImage" />
        <dc:title />
      </cc:Work>
    </rdf:RDF>
  </metadata>
  <g
     inkscape:groupmode="layer"
     id="layer3"
     inkscape:label="Layer 3"
     style="display:inline">
    <g
       id="g4368">
      <path
         sodipodi:nodetypes="sscsccccccccccccccccssccccccccccccccccscsscccccccccccccccccccccccccsccsscccss"
         inkscape:connector-curvature="0"
         id="path10459"
         d="m 58.783203,60.410156 c -4.71808,0 -9.066549,0.466253 -13.261719,2.820313 -3.90143,2.18923 -9.257812,8.109375 -9.257812,8.109375 0,0 -6.133346,-0.832465 -10.441406,1.759765 -1.504932,0.905543 -2.866563,2.094748 -4.074219,3.332032 1.935086,-0.16807 3.874745,-0.273764 5.810547,-0.335938 -1.905899,5.682041 -4.317383,11.09704 -5.117188,17.072266 3.425523,-4.525169 4.540496,-10.232704 6.521485,-15.435547 1.726746,1.143212 3.231358,10.778272 4.875,15.076172 1.031838,-2.485603 3.353346,-4.881721 6.226562,-4.806641 1.076089,-4.044479 3.15034,-9.929851 6.904297,-13.296875 1.663318,-1.888449 1.131372,-1.908035 2.861328,-0.0625 3.70999,3.040413 6.289143,8.200408 6.962891,12.328125 6.715485,-1.571135 10.521664,7.371891 7.607422,12.65625 -0.957257,2.614387 0.132882,6.447867 2.365694,7.030407 -0.06678,-10.735036 0.12897,-20.453579 0.06204,-31.18861 3.069076,3.247235 5.789939,6.814002 8.962891,9.960938 -2.453019,-3.617621 -5.104176,-7.094325 -7.994141,-10.375 1.945437,-0.347067 3.904213,-0.613377 5.867187,-0.84375 -0.09568,-3.080097 -0.06173,-6.182555 0.0098,-9.291016 C 68.977715,63.2135 62.641699,60.410156 58.783203,60.410156 Z m 51.041017,0 c -3.32099,0 -8.46551,2.0757 -12.837892,3.746094 -0.05139,3.351453 -0.09808,6.701785 -0.07227,10.041016 2.00361,0.23263 4.002862,0.503433 5.988282,0.857422 -2.88626,3.283552 -5.549274,6.751198 -7.994141,10.375 2.506129,-2.404591 4.594267,-5.197325 6.968751,-7.726563 4.20208,-5.076887 0.90792,9.377792 1.89844,12.667969 0.54839,5.477598 -1.22373,12.233326 0.69336,16.409806 0.92272,-2.1417 3.03001,-4.41441 1.83594,-7.134416 -2.90046,-5.269729 0.8254,-14.168844 7.53125,-12.697265 0.8057,-4.69316 4.1937,-10.389836 8.49609,-13.740235 3.8701,3.860694 7.35833,8.763948 7.87109,14.34961 1.9235,0.576794 5.58706,1.848235 6.45313,4.783203 1.72447,-3.161014 3.14281,-10.768171 4.75586,-15.556641 2.10578,5.463818 3.23032,11.470248 6.75977,16.273438 -0.528,-5.425129 -3.19094,-11.437217 -5.03126,-16.962891 1.83512,0.0881 3.75506,0.192022 5.69532,0.347656 -0.87966,-0.817003 -1.84716,-1.548692 -2.90039,-2.074218 -7.03934,-3.51237 -16.59375,-3.029297 -16.59375,-3.029297 0,0 -2.20759,-5.837735 -6.25586,-8.109375 -4.04829,-2.27165 -8.54364,-2.820313 -13.26172,-2.820313 z M 92.363281,101 c 0.754698,3.17829 4.227893,5.48312 7.353516,6.16992 C 97.568086,104.78929 95.173108,102.57904 92.363281,101 Z m -14.001953,0.0117 c -2.69804,1.44298 -5.113836,3.67944 -7.21875,5.98047 2.227214,-0.0655 6.57524,-2.80195 7.21875,-5.98047 z m -48.958984,3.78125 c -1.269999,0.0965 3.465615,3.0026 5.02539,3.0918 1.374941,-1.88668 -3.488919,-1.91152 -5.02539,-3.0918 z m 112.326176,0.0293 c -1.05485,-0.18627 -3.79906,1.66071 -5.77344,1.80468 -0.3196,2.96175 4.6947,-0.74214 5.77344,-1.80468 z m -56.378911,1.33984 c -1.551603,2.34731 -3.587967,4.31425 -5.921875,5.82227 3.976442,-0.0194 7.954103,-0.0235 11.931641,0.002 -2.347183,-1.48792 -4.409602,-3.42354 -6.009766,-5.82422 z m 35.892581,3.45117 c -1.29455,1.17262 -2.73161,2.17151 -4.26563,3.00586 2.78289,0.12589 5.56371,0.27997 8.34375,0.45313 -1.50384,-0.90352 -2.88363,-2.05356 -4.07812,-3.45899 z m -72.015628,0.23633 c -1.142677,1.30374 -2.449782,2.36248 -3.857421,3.21484 2.779994,-0.17065 5.562888,-0.31694 8.345703,-0.44336 -1.618959,-0.82036 -3.132615,-1.76123 -4.488282,-2.77148 z m -21.695312,3.94336 0.289062,0.71094 c 0.393009,-0.0412 0.786567,-0.0754 1.179688,-0.11524 -0.496549,-0.18013 -0.987666,-0.37722 -1.46875,-0.5957 z m 58.378906,5.44336 c -18.506761,-0.0121 -37.023726,0.83004 -55.439453,2.48828 l 2.123047,6.34766 103.41992,0 2.22852,-6.50977 c -17.3692,-1.54254 -34.84536,-2.31475 -52.332034,-2.32617 z"
         style="display:inline;fill:#daa520;fill-opacity:1;stroke:none;stroke-width:0.1;stroke-linecap:butt;stroke-linejoin:miter;stroke-miterlimit:4;stroke-dasharray:none;stroke-opacity:1" />
      <path
         sodipodi:nodetypes="ccccccccccccccccccccccccccsccsccsccs"
         inkscape:connector-curvature="0"
         id="path4288"
         d="m 17.933594,106.08984 c 1.141198,3.05381 2.385396,6.08494 3.566406,9.13477 2.494689,-0.30858 4.992632,-0.5802 7.492188,-0.83399 -3.525924,-1.27969 -6.703834,-3.53136 -8.935547,-6.65039 -0.369281,-0.49356 -0.725109,-0.99608 -1.070313,-1.5039 0.0013,4e-5 0.0026,-5e-5 0.0039,0 0,0 -0.557933,-0.0817 -1.05664,-0.14648 z m 67.416015,0.0723 c -1.551603,2.34731 -3.587967,4.31425 -5.921875,5.82227 3.97647,-0.0193 7.954043,-0.0236 11.931641,0.002 -2.347183,-1.48792 -4.409602,-3.42354 -6.009766,-5.82422 z m 67.263671,0 c -0.29892,0.0537 -0.60656,0.0719 -0.91797,0.0723 -0.4827,0.69507 -0.98006,1.38045 -1.51367,2.04492 -2.17284,2.8598 -5.15535,4.9194 -8.44922,6.11718 2.12241,0.21715 4.24387,0.4445 6.36328,0.69922 0.31482,-0.0112 0.60418,0.0108 0.87305,0.0586 1.21162,-3.00336 2.47854,-5.98654 3.64453,-8.99219 z m -31.37109,3.45117 c -1.29455,1.17262 -2.73161,2.17151 -4.26563,3.00586 2.78685,0.12613 5.57148,0.28155 8.35547,0.45508 -1.50748,-0.90491 -2.89299,-2.05273 -4.08984,-3.46094 z m -72.015628,0.23633 c -1.140518,1.30128 -2.440968,2.3668 -3.845703,3.21875 2.776982,-0.17096 5.556138,-0.32048 8.335938,-0.44727 -1.619549,-0.82055 -3.134132,-1.76091 -4.490235,-2.77148 z m 36.683594,9.38672 c -20.411503,-0.0133 -40.836612,1.00194 -61.123047,3.01758 -0.238832,0.11199 -0.473391,0.18853 -0.705078,0.2539 0.196706,0.64222 0.383784,1.28786 0.560547,1.93555 l 121.042972,0 c 0.19789,-0.70625 0.41173,-1.40825 0.63476,-2.10742 -20.02345,-2.06039 -40.20993,-3.08642 -60.410154,-3.09961 z"
         style="display:inline;fill:#daa520;fill-opacity:1;stroke:none;stroke-width:0.1;stroke-linecap:butt;stroke-linejoin:miter;stroke-miterlimit:4;stroke-dasharray:none;stroke-opacity:1" />
      <path
         sodipodi:nodetypes="ccccccccc"
         inkscape:connector-curvature="0"
         id="path4292"
         d="m 85.910156,119.23633 c -20.411503,-0.0133 -40.836612,1.00194 -61.123047,3.01758 -2.408203,0.34961 0,0 -2.408203,0.34961 0.816596,3.92522 1.620191,7.67351 2.437571,11.59858 0.09721,-0.0948 0.192448,-0.019 0.302664,-0.10835 15.80197,-2.17207 31.738377,-2.93471 47.679687,-3.10937 20.21478,0.42081 53.554232,-0.27913 73.009762,3.67382 0.83968,-4.0318 1.67866,-8.06374 2.51758,-12.0957 -21.45943,-1.96036 -43.84903,-3.27826 -62.416014,-3.32617 z"
         style="display:inline;fill:#daa520;fill-opacity:1;stroke:none;stroke-width:0.1;stroke-linecap:butt;stroke-linejoin:miter;stroke-miterlimit:4;stroke-dasharray:none;stroke-opacity:1" />
      <path
         id="path10473"
         d="M 80.123047 50.802734 C 78.661529 51.122126 77.192616 51.386333 75.716797 51.574219 L 75.716797 73.984375 C 77.1833 73.84294 78.651605 73.732873 80.123047 73.65625 L 80.123047 50.802734 z "
         style="display:inline;overflow:visible;visibility:visible;fill:#daa520;fill-opacity:1;stroke:none;stroke-width:0.1;stroke-linecap:butt;stroke-linejoin:miter;stroke-miterlimit:4;stroke-dasharray:none;stroke-dashoffset:0;stroke-opacity:1;marker:none;enable-background:accumulate" />
      <path
         sodipodi:nodetypes="cccssccccccsc"
         inkscape:connector-curvature="0"
         id="path10447"
         d="m 85.091797,138.19727 c -18.485306,-0.0455 -36.967967,0.7445 -55.318359,2.72461 -2.754485,0.42739 -5.622512,0.73904 -6.986061,2.04308 -1.581065,0.82104 -1.463158,2.22254 -1.463158,2.22254 0.16235,1.20808 0.375474,2.36179 1.746093,3.39453 0.72477,0.54611 1.838236,1.05692 3.572266,1.52539 29.46027,-4.78012 73.593542,-7.24453 117.541012,0.0352 1.46683,-0.37286 2.57662,-0.863 3.38868,-1.44336 1.25129,-0.89424 1.79307,-2.00459 1.83203,-3.24219 -0.0155,-2.20492 -3.40367,-5.00139 -4.15996,-4.62325 -6.05461,-0.42824 -9.85822,-1.26824 -17.07442,-1.18144 -14.3204,-0.87842 -28.700663,-1.4197 -43.078123,-1.45507 z"
         style="color:#000000;font-style:normal;font-variant:normal;font-weight:normal;font-stretch:normal;font-size:medium;line-height:normal;font-family:'Bitstream Vera Sans';-inkscape-font-specification:'Bitstream Vera Sans';text-indent:0;text-align:start;text-decoration:none;text-decoration-line:none;letter-spacing:normal;word-spacing:normal;text-transform:none;direction:ltr;block-progression:tb;writing-mode:lr-tb;text-anchor:start;display:inline;overflow:visible;visibility:visible;fill:#daa520;fill-opacity:1;stroke:none;stroke-width:0.1;stroke-miterlimit:4;stroke-dasharray:none;stroke-opacity:1;marker:none;enable-background:accumulate" />
      <path
         id="rect10481"
         d="M 90.576172 50.945312 L 90.576172 73.65625 C 92.047615 73.732929 93.515916 73.842932 94.982422 73.984375 L 94.982422 51.642578 C 93.510448 51.506721 92.040831 51.274636 90.576172 50.945312 z "
         style="display:inline;overflow:visible;visibility:visible;fill:#daa520;fill-opacity:1;stroke:none;stroke-width:0.1;stroke-linecap:butt;stroke-linejoin:miter;stroke-miterlimit:4;stroke-dasharray:none;stroke-dashoffset:0;stroke-opacity:1;marker:none;enable-background:accumulate" />
      <path
         transform="translate(-283.22191,-165.69867)"
         style="color:#000000;font-style:normal;font-variant:normal;font-weight:normal;font-stretch:normal;font-size:medium;line-height:normal;font-family:'Bitstream Vera Sans';-inkscape-font-specification:'Bitstream Vera Sans';text-indent:0;text-align:start;text-decoration:none;text-decoration-line:none;letter-spacing:normal;word-spacing:normal;text-transform:none;direction:ltr;block-progression:tb;writing-mode:lr-tb;text-anchor:start;display:inline;overflow:visible;visibility:visible;fill:#daa520;fill-opacity:1;stroke:none;stroke-width:0.1;stroke-miterlimit:4;stroke-dasharray:none;stroke-opacity:1;marker:none;enable-background:accumulate"
         d="m 328.39148,280.75897 -0.0172,0.0132 -0.0172,0 c -7.37597,0.53068 -15.91244,1.10959 -23.36137,2.12447 -1.05328,1.25903 -1.14064,2.40717 0.77584,3.32525 7.15159,-0.97436 15.58351,-1.56707 22.96482,-2.09807 10.01069,-0.58025 20.10402,-0.94297 30.1715,-1.04247 l 19.30977,0 c 6.02219,0 18.74056,0.36749 30.1715,1.05564 11.37883,0.68501 22.9993,2.08488 22.9993,2.08488 1.98303,-1.01257 1.76763,-2.14533 0.68963,-3.32525 0,0 -11.72796,-1.43836 -23.34412,-2.13766 -11.56401,-0.69617 -24.26639,-1.05564 -30.51631,-1.05564 l -19.30977,0 c -10.18699,0.0304 -20.3583,0.51091 -30.51637,1.05568 z"
         id="path10893"
         sodipodi:nodetypes="ccccccccsccsccc"
         inkscape:connector-curvature="0" />
      <path
         transform="translate(-283.22191,-165.69867)"
         style="color:#000000;font-style:normal;font-variant:normal;font-weight:normal;font-stretch:normal;font-size:medium;line-height:normal;font-family:'Bitstream Vera Sans';-inkscape-font-specification:'Bitstream Vera Sans';text-indent:0;text-align:start;text-decoration:none;text-decoration-line:none;letter-spacing:normal;word-spacing:normal;text-transform:none;direction:ltr;block-progression:tb;writing-mode:lr-tb;text-anchor:start;display:inline;overflow:visible;visibility:visible;fill:#daa520;fill-opacity:1;stroke:none;stroke-width:0.1;stroke-miterlimit:4;stroke-dasharray:none;stroke-opacity:1;marker:none;enable-background:accumulate"
         d="m 331.21133,299.52342 -0.016,0.0132 -0.016,0 c -6.85832,0.53068 -14.7957,1.10959 -21.72185,2.12447 -0.97937,1.25902 -1.06059,2.40716 0.72139,3.32525 6.64969,-0.97436 14.48985,-1.56707 21.35314,-2.09808 9.30813,-0.58025 18.69311,-0.75082 28.05405,-0.85032 l 17.9546,0 c 5.59956,0 17.42535,0.17535 28.05405,0.8635 10.58027,0.68501 21.38521,2.08488 21.38521,2.08488 1.84386,-1.01258 1.64357,-2.14534 0.64124,-3.32525 0,0 -10.90489,-1.43837 -21.70583,-2.13767 -10.75245,-0.69616 -22.56336,-0.86349 -28.37467,-0.86349 l -17.9546,0 c -9.47206,0.0304 -18.92955,0.31877 -28.37472,0.86353 z"
         id="path10901"
         sodipodi:nodetypes="ccccccccsccsccc"
         inkscape:connector-curvature="0" />
      <path
         sodipodi:nodetypes="ccccccccccccssssssscccccccccccc"
         inkscape:connector-curvature="0"
         id="path10487"
         d="m 131.89844,35.767578 c -0.54981,1.583113 -1.75482,2.902088 -3.71289,3.365234 -2.31693,0.814885 -4.3668,-0.03515 -5.72071,-1.580078 -0.35008,1.988582 -1.61931,3.756472 -3.95703,4.308594 -2.00153,0.705529 -3.79734,0.157779 -5.125,-0.998047 -0.48035,1.742441 -1.70383,3.230043 -3.80859,3.728516 -2.13793,0.752279 -4.03783,0.07306 -5.38477,-1.248047 -0.6015,1.409884 -1.75206,2.560004 -3.54883,2.984375 -3.165135,1.11518 -5.816565,-0.884554 -6.884761,-3.517578 -0.941207,0.800964 -2.015378,1.441452 -3.154297,1.945312 -0.236788,0.584166 -0.731489,1.791666 -1.114277,2.28596 0.696453,0.70213 0.954104,0.833751 1.153303,1.726487 2.902008,0.613586 6.271158,1.243369 8.919959,1.093022 4.802173,-0.27256 8.432503,-0.786536 13.181643,-2.285156 6.58385,-2.07757 10.51793,-4.056258 16.57422,-5.304688 3.18841,-0.65726 7.29676,-0.295465 10.93164,0.546875 4.07532,0.9444 8.05412,2.675897 10.8789,5.472657 2.99506,2.96536 4.73492,6.015175 5.9336,10.453125 1.15714,4.28411 1.17401,5.777134 0.61328,10.427734 -0.2421,2.007894 -1.46193,5.283713 -2.5918,8.011719 1.61168,0.265095 3.18984,0.59681 4.69531,1.019531 -1.36562,-2.541103 -1.17906,-5.964479 1.74414,-7.689453 0.24488,-0.165452 0.50369,-0.310076 0.77149,-0.435547 -1.96335,-2.4557 -2.25227,-6.421137 0.70312,-8.474609 -2.54596,-1.775562 -3.6892,-5.727354 -1.86328,-8.378907 -3.08328,-0.657774 -5.10892,-4.240151 -4.50586,-7.294921 -3.66898,1.043644 -6.60736,-2.050989 -7.01172,-5.328126 -0.40021,0.216068 -0.83447,0.398818 -1.32812,0.515626 -3.55398,1.252365 -6.47468,-1.416197 -7.21289,-4.507813 -1.03989,1.555455 -2.70465,2.618671 -4.84375,2.435547 -2.11936,-0.220778 -3.56623,-1.565887 -4.33203,-3.277344 z"
         style="color:#000000;font-style:normal;font-variant:normal;font-weight:normal;font-stretch:normal;font-size:medium;line-height:normal;font-family:'Bitstream Vera Sans';-inkscape-font-specification:'Bitstream Vera Sans';text-indent:0;text-align:start;text-decoration:none;text-decoration-line:none;letter-spacing:normal;word-spacing:normal;text-transform:none;direction:ltr;block-progression:tb;writing-mode:lr-tb;text-anchor:start;display:inline;overflow:visible;visibility:visible;fill:#daa520;fill-opacity:1;stroke:none;stroke-width:0.1;stroke-miterlimit:4;stroke-dasharray:none;stroke-opacity:1;marker:none;enable-background:accumulate" />
      <path
         sodipodi:nodetypes="ccccccccccccssssssscccccccccccc"
         inkscape:connector-curvature="0"
         id="path10577"
         d="m 38.849609,35.902344 c -1.240656,2.223597 -3.669429,3.734437 -6.511718,2.734375 -1.211833,-0.286922 -2.135669,-0.902151 -2.796875,-1.703125 -0.85558,2.950992 -3.698006,5.392682 -7.128907,4.183594 -0.49548,-0.116905 -0.938213,-0.293257 -1.339843,-0.509766 -0.406268,3.274083 -3.333846,6.37353 -7.003907,5.326172 0.602126,3.054817 -1.418097,6.64649 -4.5039059,7.302734 1.8202319,2.651202 0.6671359,6.586345 -1.8847656,8.357422 2.9743765,2.048763 2.6904405,6.019976 0.7207031,8.482422 0.2692334,0.12564 0.5293757,0.270501 0.7753906,0.4375 2.9260158,1.726593 3.1102808,5.152218 1.7421878,7.693359 1.555334,-0.399225 3.128979,-0.724198 4.71289,-0.99414 -1.133708,-2.734422 -2.362363,-6.024742 -2.605468,-8.041016 -0.56073,-4.6506 -0.543859,-6.143624 0.613281,-10.427734 1.19868,-4.43795 2.938534,-7.487765 5.933594,-10.453125 2.82478,-2.79676 6.803586,-4.528257 10.878906,-5.472657 3.63488,-0.84234 7.74323,-1.204135 10.93164,-0.546875 6.05629,1.24843 9.990369,3.227118 16.574219,5.304688 4.74914,1.49862 8.379471,2.012596 13.181641,2.285156 2.707493,0.153678 6.062591,-0.503835 9.022977,-1.132084 0.209224,-0.785175 0.308357,-0.760543 0.785617,-1.395184 -0.434069,-0.511287 -0.757429,-1.81031 -0.97461,-2.443435 -1.102118,-0.496453 -2.139968,-1.153528 -3.048828,-2.027344 -1.081528,2.607376 -3.720253,4.573234 -6.865234,3.464844 -1.797171,-0.423845 -2.948776,-1.574186 -3.554688,-2.982422 -1.344973,1.320947 -3.243388,1.998738 -5.378906,1.246094 -2.108604,-0.498274 -3.337302,-1.989689 -3.820312,-3.734375 -1.326927,1.158254 -3.12042,1.711016 -5.123047,1.001953 -2.333456,-0.555311 -3.60589,-2.320708 -3.957032,-4.306641 -1.353001,1.543422 -3.398035,2.395146 -5.71289,1.580078 -1.901087,-0.450217 -3.090698,-1.708753 -3.66211,-3.230468 z"
         style="color:#000000;font-style:normal;font-variant:normal;font-weight:normal;font-stretch:normal;font-size:medium;line-height:normal;font-family:'Bitstream Vera Sans';-inkscape-font-specification:'Bitstream Vera Sans';text-indent:0;text-align:start;text-decoration:none;text-decoration-line:none;letter-spacing:normal;word-spacing:normal;text-transform:none;direction:ltr;block-progression:tb;writing-mode:lr-tb;text-anchor:start;display:inline;overflow:visible;visibility:visible;fill:#daa520;fill-opacity:1;stroke:none;stroke-width:0.1;stroke-miterlimit:4;stroke-dasharray:none;stroke-opacity:1;marker:none;enable-background:accumulate" />
      <path
         id="ellipse10759"
         d="M 85.349609 67.666016 A 3.8088077 3.8712472 0 0 0 81.541016 71.537109 A 3.8088077 3.8712472 0 0 0 82.115234 73.578125 C 84.269704 73.508805 86.425604 73.508788 88.580078 73.578125 A 3.8088077 3.8712472 0 0 0 89.158203 71.537109 A 3.8088077 3.8712472 0 0 0 85.349609 67.666016 z "
         style="display:inline;overflow:visible;visibility:visible;fill:#daa520;fill-opacity:1;stroke:none;stroke-width:0.1;stroke-linecap:butt;stroke-linejoin:miter;stroke-miterlimit:4;stroke-dasharray:none;stroke-dashoffset:0;stroke-opacity:1;marker:none;enable-background:accumulate" />
      <path
         sodipodi:nodetypes="scsccccscscsscscssccccccccccccccccsccsccsccsccscssccscccccccccccccsscccssccccccccccccccccccccccsccscccccsccccccsccsccccscccccccccccccscsccscsccsccccccsscccsccsscccccccccccccccccc"
         inkscape:connector-curvature="0"
         id="path10817"
         d="m 85.349609,75.53125 c -4.618913,0 -9.174231,0.205767 -13.732421,0.964844 2.475459,2.855581 4.46715,5.921762 6.511718,8.777344 1.43251,2.00077 1.660005,3.249877 2.195313,5.207031 0.999987,-1.630205 2.679463,-2.786746 4.958984,-2.691407 1.441915,-0.02558 2.879642,0.494979 3.988281,1.414063 0.458108,0.33569 0.834432,0.713285 1.146485,1.117187 0.503349,-1.86086 0.761455,-3.104236 2.152343,-5.046874 2.044569,-2.855582 4.03626,-5.921763 6.511719,-8.777344 C 94.52384,75.737017 89.968517,75.53125 85.349609,75.53125 Z m -36.919921,0.539062 c -0.235651,0.232999 -2.302086,2.400252 -3.601563,4.806641 -0.782584,1.44918 -2.171904,4.48988 -2.3125,6.130859 -0.115938,1.353145 0.347656,3.585938 0.347656,3.585938 0,0 -1.613915,-0.520175 -2.429687,-0.578125 -0.576834,-0.04098 -1.208036,-0.0091 -1.734375,0.230469 -1.442507,0.656546 -2.567297,2.10167 -3.123047,3.585937 -0.513712,1.371969 -0.331187,2.96745 0,4.394531 0.514509,2.216988 2.653201,3.925828 2.082031,6.128908 l -0.810547,3.12305 c 0,0 2.535913,-0.15069 3.585938,-0.8086 0.843718,-0.52859 1.450574,-1.22388 1.890625,-2.04687 -0.442098,-0.52401 -0.828893,-1.17105 -1.134766,-1.99805 0.330045,-1.31496 0.889551,-2.23978 1.595703,-2.914062 0.0162,-0.149075 0.03774,-0.297553 0.07813,-0.44336 0.180021,-0.649889 0.366682,-1.743675 1.041016,-1.734375 0.446003,0.0063 0.935229,0.414632 1.253906,0.886719 2.514256,-0.694264 5.709917,-0.227749 8.457031,-0.525391 1.134978,-0.09662 1.82194,0.01588 2.332032,0.3125 0.161882,0.225549 0.271014,0.474216 0.359375,0.732422 0.901709,1.029062 1.243615,2.605437 0.988281,4.021487 0.513164,0.99727 1.248344,1.79256 2.285156,2.3457 1.093259,0.58332 3.632813,0.55859 3.632813,0.55859 L 62.1875,102.80664 c -0.723052,-2.158 0.59801,-3.897095 0.957031,-6.144531 0.231101,-1.446671 0.301281,-3.051811 -0.30664,-4.384765 -0.657665,-1.441978 -1.878589,-2.804759 -3.363282,-3.359375 -0.541727,-0.20239 -1.175457,-0.190405 -1.748047,-0.109375 -0.809757,0.114589 -3.191406,1.091797 -3.191406,1.091797 0,0 0.07504,-2.837895 -0.134765,-4.179688 -0.254417,-1.627232 -1.159508,-3.636113 -2.041016,-5.027344 -1.463739,-2.310133 -3.703417,-4.395389 -3.929687,-4.623047 z m 73.839842,0 c -0.22627,0.227655 -2.4679,2.312914 -3.93164,4.623047 -0.88151,1.391231 -1.78464,3.400112 -2.03906,5.027344 -0.20983,1.341793 -0.13477,4.179688 -0.13477,4.179688 0,0 -2.3836,-0.977208 -3.19336,-1.091797 -0.57259,-0.08103 -1.20436,-0.09301 -1.74609,0.109375 -1.48469,0.554616 -2.70757,1.917397 -3.36523,3.359375 -0.60793,1.332954 -0.53579,2.938094 -0.30469,4.384765 0.35902,2.247436 1.68008,3.986531 0.95703,6.144531 l -1.02539,3.05859 c 0,0 2.53955,0.0247 3.63281,-0.55859 1.02781,-0.54834 1.76072,-1.33356 2.27344,-2.31836 -0.3574,-1.13595 -0.15056,-2.41285 0.89453,-3.660155 0.0946,-0.40045 0.22229,-0.785862 0.46289,-1.121094 0.34758,-0.484333 0.83577,-1.021219 1.50781,-0.964843 0.35475,0.02972 0.65321,0.337504 0.86914,0.724609 2.49597,-0.408496 5.95764,-0.128527 8.34766,0.550781 0.31132,-0.514266 0.84321,-0.977768 1.32031,-0.984375 0.67434,-0.0094 0.861,1.084486 1.04102,1.734375 0.049,0.177053 0.0775,0.357285 0.0918,0.539063 1.46614,1.588369 1.34192,3.315949 0.35743,4.658199 0.4432,0.89596 1.08157,1.64192 1.98046,2.20508 1.05002,0.65791 3.58399,0.8086 3.58399,0.8086 l -0.80859,-3.12305 c -0.57117,-2.20308 1.56752,-3.91192 2.08203,-6.128908 0.33118,-1.427081 0.51371,-3.022562 0,-4.394531 C 134.5673,92.347764 133.44251,90.90264 132,90.246094 c -0.52634,-0.239508 -1.15754,-0.271399 -1.73438,-0.230469 -0.81576,0.05795 -2.42968,0.578125 -2.42968,0.578125 0,0 0.46359,-2.232793 0.34765,-3.585938 -0.14059,-1.640982 -1.52991,-4.681679 -2.3125,-6.130859 -1.29947,-2.406389 -3.36591,-4.573641 -3.60156,-4.806641 z m -97.601561,2.185547 c -6.157283,0.291986 -11.709272,1.191068 -16.4726565,2.876953 2.6848085,4.69406 4.9970505,9.239098 7.0937495,13.71875 0.225342,-0.185978 0.468536,-0.350065 0.72461,-0.498046 0.02761,-0.01597 0.05407,-0.03334 0.08203,-0.04883 0.248904,-0.137778 0.512679,-0.254301 0.789063,-0.351563 0.04069,-0.01436 0.08176,-0.0276 0.123046,-0.04102 0.278354,-0.09025 0.568431,-0.160253 0.873047,-0.205078 0.03781,-0.0056 0.07702,-0.0088 0.115235,-0.01367 0.320034,-0.0404 0.650509,-0.06146 0.998047,-0.04687 0.463111,-0.0082 0.921563,0.05864 1.373047,0.158204 6.26e-4,1.38e-4 0.0013,-1.39e-4 0.002,0 0.383463,-4.764902 2.365279,-10.100877 4.298828,-15.548829 z m 121.363281,0 c 1.92295,5.418099 3.89415,10.725666 4.29297,15.470703 0.38329,-0.06659 0.78678,-0.09526 1.21094,-0.08008 1.37835,-0.03143 2.7523,0.43485 3.84375,1.273438 2.10543,-4.501537 4.42662,-9.069343 7.125,-13.78711 -4.76338,-1.68589 -10.31537,-2.584967 -16.47266,-2.876951 z m -77.169922,2.501953 0.16211,25.601568 c 1.666955,-1.88645 3.437744,-3.67094 5.457031,-5.20508 1.736115,-1.319015 3.662239,-2.446773 5.861328,-3.302738 -1.434921,-2.072528 -1.366803,-5.063964 -0.08789,-7.251953 -1.918548,-0.635153 -2.956239,-1.275747 -4.914062,-2.902343 -2.375084,-1.973239 -4.103437,-4.319382 -6.478517,-6.939454 z m 32.974612,0 c -2.375095,2.620075 -4.101481,4.966215 -6.476565,6.939454 -1.905819,1.58339 -2.950765,2.232227 -4.773437,2.851562 1.514594,2.193001 1.09066,5.128065 -0.416016,7.222656 2.279996,0.864172 4.262098,2.025347 6.048828,3.382816 2.019288,1.53414 3.78812,3.31864 5.45508,5.20508 z M 90.169922,97.771484 c -1.478499,2.05542 -3.994375,3.299646 -6.757813,2.214844 -1.244767,-0.33987 -2.191842,-1.004129 -2.865234,-1.853516 0.02999,0.729951 0.05672,2.519998 -0.341797,3.689458 -0.43972,1.29033 -1.108296,2.63704 -2.107422,3.56445 -1.772591,1.64535 -2.986266,2.18632 -5.277573,2.9604 -1.859866,0.62839 -5.315573,0.90644 -7.27857,0.88354 -2.352968,-0.0275 -4.365299,-0.45457 -6.546147,-1.33838 -1.546378,-0.62667 -2.998087,-0.84991 -4.112554,-2.00556 -0.114225,0.0322 -0.219527,0.0772 -0.341796,0.0977 -3.406657,-0.12817 -7.481193,1.22881 -10.390625,-0.008 -0.435518,0.54528 -0.936107,1.05012 -1.457032,1.50196 -2.071945,1.7971 -4.437635,2.80383 -7.697265,2.50781 -4.357761,-0.39571 -8.334511,-4.04499 -10.492188,-7.41016 -0.08975,0.18251 -0.186616,0.35882 -0.291015,0.53321 -7.46e-4,0.001 -0.0012,0.003 -0.002,0.004 -0.0053,0.009 -0.01225,0.0166 -0.01758,0.0254 -0.181949,0.30066 -0.383225,0.58569 -0.605468,0.85547 -0.07562,0.0924 -0.154399,0.18138 -0.234375,0.26953 -0.143504,0.15716 -0.290565,0.30699 -0.447266,0.44922 -0.134973,0.12327 -0.273713,0.24077 -0.417969,0.35156 -0.09628,0.0736 -0.190901,0.14721 -0.291015,0.21485 -0.21218,0.144 -0.433483,0.27208 -0.66211,0.38672 -0.138462,0.0693 -0.278063,0.13577 -0.421875,0.19336 -0.0022,8.6e-4 -0.0037,0.003 -0.0059,0.004 3.922318,4.96566 8.483106,7.4646 13.30664,7.72461 2.917303,0.15721 5.693359,0.0169 8.503907,-1.54492 2.197758,-1.22126 4.506954,-2.87376 6.320312,-5.22656 0,0 3.775252,2.50773 6.11646,3.642 2.693541,1.30496 5.811526,2.17023 8.800053,2.33398 3.089901,0.16927 7.560406,-0.1318 10.511757,-1.06222 2.95648,-0.93199 4.027884,-1.54471 6.329543,-3.51337 1.657347,-1.41753 4.353515,-5.56641 4.353515,-5.56641 0,0 2.650022,3.70694 4.307369,5.12447 2.301659,1.96866 3.684373,3.06751 6.640854,3.9995 2.951351,0.93042 7.289277,1.2315 10.379177,1.06223 2.98853,-0.16375 6.1507,-0.80805 8.84424,-2.11301 2.3412,-1.13427 5.93969,-3.90717 5.93969,-3.90717 1.81336,2.3528 4.12256,4.0053 6.32031,5.22656 2.81055,1.56172 5.58661,1.70213 8.50391,1.54492 4.83679,-0.26073 9.40684,-2.77468 13.33593,-7.76758 -0.0483,-0.0197 -0.0961,-0.0335 -0.14453,-0.0547 -1.68519,-0.53092 -2.7794,-1.66676 -3.37695,-3.03124 -2.1804,3.31985 -6.10792,6.86252 -10.39649,7.25195 -3.25963,0.29602 -5.62532,-0.71071 -7.69726,-2.50781 -0.52341,-0.45399 -1.02798,-0.96151 -1.46484,-1.50977 -1.56797,0.88776 -3.61755,1.16356 -5.39258,0.28516 -1.79219,0.6426 -3.73647,0.36241 -5.25391,-0.45508 -1.12698,1.20151 -2.16467,1.71667 -3.74873,2.35861 -2.18085,0.88381 -4.54675,1.2227 -6.89971,1.25 -1.963,0.0229 -5.33031,-0.34354 -7.190176,-0.97193 -2.291308,-0.77408 -3.683712,-1.40344 -5.456304,-3.04879 -0.999126,-0.92741 -1.665749,-2.27412 -2.105468,-3.56445 -0.506444,-1.48618 -0.324219,-4.050786 -0.324219,-4.050786 z M 29.111328,83.486328 c -1.413395,4.150185 -2.76518,8.322982 -5.84375,11.806641 1.224346,1.016903 1.817784,2.339163 1.939453,3.714843 0.01019,0.116428 0.01424,0.232604 0.01758,0.34961 0.0061,0.203333 0.01193,0.405616 -0.002,0.609375 -0.0028,0.0398 -0.01017,0.07935 -0.01367,0.119143 -0.04602,0.5299 -0.154973,1.05384 -0.324218,1.56445 -0.0019,0.006 -0.002,0.0119 -0.0039,0.0176 8.270637,1.6551 6.749195,2.3833 10.244141,2.99609 z m 112.476562,0 -6.01367,21.177732 c 3.48486,-0.61102 1.98592,-1.3375 10.17578,-2.98242 -0.52742,-2.224185 0.0941,-4.774353 1.67188,-6.398437 -3.07209,-3.481575 -4.42199,-7.650807 -5.83399,-11.796875 z"
         style="display:inline;fill:#daa520;fill-opacity:1;stroke:none;stroke-width:0.1;stroke-linecap:butt;stroke-linejoin:miter;stroke-miterlimit:4;stroke-dasharray:none;stroke-opacity:1" />
      <path
         id="path10689"
         d="M 76.056641 0.3203125 C 77.091431 1.6302025 78.326355 2.6036369 79.328125 3.9355469 C 80.116685 4.9839727 80.763832 6.24132 81.212891 7.5566406 C 82.166657 6.4685785 83.528339 5.7549916 85.277344 5.8242188 C 86.437368 5.8052513 87.601362 6.1551596 88.5625 6.8046875 C 88.916284 7.0132949 89.229986 7.2480459 89.505859 7.5019531 C 89.954668 6.2068387 90.593647 4.9691983 91.371094 3.9355469 C 92.372864 2.6036369 93.607798 1.6302025 94.642578 0.3203125 L 76.056641 0.3203125 z M 72.984375 3.3046875 L 72.984375 20.083984 C 74.294265 19.049194 75.267709 17.812317 76.599609 16.810547 C 77.689468 15.99083 79.004713 15.328694 80.396484 14.857422 C 79.346375 12.975042 79.451108 10.465918 80.507812 8.5644531 C 79.075201 8.0914849 77.71819 7.4194442 76.599609 6.578125 C 75.267709 5.576355 74.294265 4.3394775 72.984375 3.3046875 z M 97.714844 3.3046875 C 96.404944 4.3394775 95.431519 5.576355 94.099609 6.578125 C 93.021368 7.3891101 91.721506 8.0471664 90.345703 8.5175781 C 91.534453 10.412841 91.278578 12.901718 90.125 14.804688 C 91.581777 15.278356 92.964387 15.956704 94.099609 16.810547 C 95.431519 17.812317 96.404944 19.049194 97.714844 20.083984 L 97.714844 3.3046875 z M 89.455078 15.732422 C 88.10098 17.287109 86.045741 18.146826 83.722656 17.328125 C 82.659336 17.076997 81.819384 16.571921 81.181641 15.912109 C 80.733824 17.197865 80.100427 18.426314 79.328125 19.453125 C 78.326355 20.785035 77.091431 21.758469 76.056641 23.068359 L 78.570312 23.068359 C 80.471476 21.759886 82.754655 21.007366 85.275391 21.121094 C 87.741518 21.052743 90.056946 21.79323 92.015625 23.068359 L 94.642578 23.068359 C 93.607798 21.758469 92.372864 20.785035 91.371094 19.453125 C 90.562782 18.378437 89.905659 17.083628 89.455078 15.732422 z "
         style="display:inline;fill:#daa520;fill-opacity:1;stroke:none;stroke-width:0.1;stroke-miterlimit:4;stroke-dasharray:none;stroke-opacity:1" />
      <path
         id="ellipse10699"
         d="M 85.349609 23.119141 A 10.460287 10.46036 0 0 0 74.888672 33.580078 A 10.460287 10.46036 0 0 0 79.666016 42.349609 C 79.854675 39.449784 81.833715 36.634951 85.259766 36.771484 C 86.415985 36.75206 87.571809 37.101104 88.533203 37.742188 C 90.357348 38.813444 91.106742 40.546554 91.095703 42.316406 A 10.460287 10.46036 0 0 0 95.810547 33.580078 A 10.460287 10.46036 0 0 0 85.349609 23.119141 z "
         style="display:inline;overflow:visible;visibility:visible;fill:#daa520;fill-opacity:1;stroke:none;stroke-width:0.1;stroke-linecap:butt;stroke-linejoin:miter;stroke-miterlimit:4;stroke-dasharray:none;stroke-dashoffset:0;stroke-opacity:1;marker:none;enable-background:accumulate" />
      <path
         inkscape:connector-curvature="0"
         id="ellipse10723"
         d="m 89.158327,52.178351 a 3.8088077,3.8712472 0 0 1 -3.808804,3.871246 3.8088077,3.8712472 0 0 1 -3.808804,-3.871246 3.8088077,3.8712472 0 0 1 3.808804,-3.87125 3.8088077,3.8712472 0 0 1 3.808804,3.87125 z"
         style="display:inline;overflow:visible;visibility:visible;fill:#daa520;fill-opacity:1;stroke:none;stroke-width:0.1;stroke-linecap:butt;stroke-linejoin:miter;stroke-miterlimit:4;stroke-dasharray:none;stroke-dashoffset:0;stroke-opacity:1;marker:none;enable-background:accumulate" />
      <path
         inkscape:connector-curvature="0"
         id="ellipse10735"
         d="m 89.158327,62.008631 a 3.8088077,3.8712472 0 0 1 -3.808804,3.871246 3.8088077,3.8712472 0 0 1 -3.808804,-3.871246 3.8088077,3.8712472 0 0 1 3.808804,-3.87125 3.8088077,3.8712472 0 0 1 3.808804,3.87125 z"
         style="display:inline;overflow:visible;visibility:visible;fill:#daa520;fill-opacity:1;stroke:none;stroke-width:0.1;stroke-linecap:butt;stroke-linejoin:miter;stroke-miterlimit:4;stroke-dasharray:none;stroke-dashoffset:0;stroke-opacity:1;marker:none;enable-background:accumulate" />
      <path
         inkscape:connector-curvature="0"
         id="ellipse10723-8"
         d="m 89.139957,42.641104 a 3.8088077,3.8712472 0 0 1 -3.808804,3.871246 3.8088077,3.8712472 0 0 1 -3.808804,-3.871246 3.8088077,3.8712472 0 0 1 3.808804,-3.87125 3.8088077,3.8712472 0 0 1 3.808804,3.87125 z"
         style="display:inline;overflow:visible;visibility:visible;fill:#daa520;fill-opacity:1;stroke:none;stroke-width:0.1;stroke-linecap:butt;stroke-linejoin:miter;stroke-miterlimit:4;stroke-dasharray:none;stroke-dashoffset:0;stroke-opacity:1;marker:none;enable-background:accumulate" />
      <path
         transform="matrix(-1,0,0,1,-283.22191,-165.69867)"
         inkscape:connector-curvature="0"
         id="ellipse10495"
         d="m -444.14859,241.10283 a 3.8088078,3.8712473 0 0 1 -3.80881,3.87125 3.8088078,3.8712473 0 0 1 -3.80881,-3.87125 3.8088078,3.8712473 0 0 1 3.80881,-3.87125 3.8088078,3.8712473 0 0 1 3.80881,3.87125 z"
         style="display:inline;overflow:visible;visibility:visible;fill:#daa520;fill-opacity:1;stroke:none;stroke-width:0.1;stroke-linecap:butt;stroke-linejoin:miter;stroke-miterlimit:4;stroke-dasharray:none;stroke-dashoffset:0;stroke-opacity:1;marker:none;enable-background:accumulate" />
      <path
         transform="matrix(-1,0,0,1,-283.22191,-165.69867)"
         inkscape:connector-curvature="0"
         id="ellipse10503"
         d="m -445.98239,231.95404 a 3.8088078,3.8712473 0 0 1 -3.80881,3.87125 3.8088078,3.8712473 0 0 1 -3.80881,-3.87125 3.8088078,3.8712473 0 0 1 3.80881,-3.87125 3.8088078,3.8712473 0 0 1 3.80881,3.87125 z"
         style="display:inline;overflow:visible;visibility:visible;fill:#daa520;fill-opacity:1;stroke:none;stroke-width:0.1;stroke-linecap:butt;stroke-linejoin:miter;stroke-miterlimit:4;stroke-dasharray:none;stroke-dashoffset:0;stroke-opacity:1;marker:none;enable-background:accumulate" />
      <path
         transform="matrix(-1,0,0,1,-283.22191,-165.69867)"
         inkscape:connector-curvature="0"
         id="ellipse10511"
         d="m -445.4288,222.27592 a 3.8088078,3.8712473 0 0 1 -3.80881,3.87125 3.8088078,3.8712473 0 0 1 -3.80881,-3.87125 3.8088078,3.8712473 0 0 1 3.80881,-3.87124 3.8088078,3.8712473 0 0 1 3.80881,3.87124 z"
         style="display:inline;overflow:visible;visibility:visible;fill:#daa520;fill-opacity:1;stroke:none;stroke-width:0.1;stroke-linecap:butt;stroke-linejoin:miter;stroke-miterlimit:4;stroke-dasharray:none;stroke-dashoffset:0;stroke-opacity:1;marker:none;enable-background:accumulate" />
      <path
         transform="matrix(-1,0,0,1,-283.22191,-165.69867)"
         inkscape:connector-curvature="0"
         id="ellipse10519"
         d="m -441.70639,213.0941 a 3.8088078,3.8712473 0 0 1 -3.80881,3.87125 3.8088078,3.8712473 0 0 1 -3.80881,-3.87125 3.8088078,3.8712473 0 0 1 3.80881,-3.87125 3.8088078,3.8712473 0 0 1 3.80881,3.87125 z"
         style="display:inline;overflow:visible;visibility:visible;fill:#daa520;fill-opacity:1;stroke:none;stroke-width:0.1;stroke-linecap:butt;stroke-linejoin:miter;stroke-miterlimit:4;stroke-dasharray:none;stroke-dashoffset:0;stroke-opacity:1;marker:none;enable-background:accumulate" />
      <path
         transform="matrix(-1,0,0,1,-283.22191,-165.69867)"
         inkscape:connector-curvature="0"
         id="ellipse10527"
         d="m -434.758,205.89754 a 3.8088078,3.8712473 0 0 1 -3.8088,3.87124 3.8088078,3.8712473 0 0 1 -3.80881,-3.87124 3.8088078,3.8712473 0 0 1 3.80881,-3.87125 3.8088078,3.8712473 0 0 1 3.8088,3.87125 z"
         style="display:inline;overflow:visible;visibility:visible;fill:#daa520;fill-opacity:1;stroke:none;stroke-width:0.1;stroke-linecap:butt;stroke-linejoin:miter;stroke-miterlimit:4;stroke-dasharray:none;stroke-dashoffset:0;stroke-opacity:1;marker:none;enable-background:accumulate" />
      <path
         transform="matrix(-1,0,0,1,-283.22191,-165.69867)"
         inkscape:connector-curvature="0"
         id="ellipse10535"
         d="m -426.07251,201.18254 a 3.8088078,3.8712473 0 0 1 -3.80881,3.87125 3.8088078,3.8712473 0 0 1 -3.8088,-3.87125 3.8088078,3.8712473 0 0 1 3.8088,-3.87125 3.8088078,3.8712473 0 0 1 3.80881,3.87125 z"
         style="display:inline;overflow:visible;visibility:visible;fill:#daa520;fill-opacity:1;stroke:none;stroke-width:0.1;stroke-linecap:butt;stroke-linejoin:miter;stroke-miterlimit:4;stroke-dasharray:none;stroke-dashoffset:0;stroke-opacity:1;marker:none;enable-background:accumulate" />
      <path
         transform="translate(-283.22191,-165.69867)"
         style="display:inline;overflow:visible;visibility:visible;fill:#daa520;fill-opacity:1;stroke:none;stroke-width:0.1;stroke-linecap:butt;stroke-linejoin:miter;stroke-miterlimit:4;stroke-dasharray:none;stroke-dashoffset:0;stroke-opacity:1;marker:none;enable-background:accumulate"
         d="m 419.14453,194.82227 c -5.84144,1.09613 -1.36585,11.50964 3.26758,6.66796 2.58203,-2.81761 0.72233,-7.40399 -3.26758,-6.66796 z"
         id="path10543"
         inkscape:connector-curvature="0" />
      <path
         transform="matrix(-1,0,0,1,-283.22191,-165.69867)"
         inkscape:connector-curvature="0"
         id="ellipse10551"
         d="m -405.97171,199.1973 a 3.8088078,3.8712473 0 0 1 -3.80881,3.87124 3.8088078,3.8712473 0 0 1 -3.80881,-3.87124 3.8088078,3.8712473 0 0 1 3.80881,-3.87125 3.8088078,3.8712473 0 0 1 3.80881,3.87125 z"
         style="display:inline;overflow:visible;visibility:visible;fill:#daa520;fill-opacity:1;stroke:none;stroke-width:0.1;stroke-linecap:butt;stroke-linejoin:miter;stroke-miterlimit:4;stroke-dasharray:none;stroke-dashoffset:0;stroke-opacity:1;marker:none;enable-background:accumulate" />
      <path
         transform="matrix(-1,0,0,1,-283.22191,-165.69867)"
         inkscape:connector-curvature="0"
         id="ellipse10559"
         d="m -378.42621,206.39381 a 3.8088078,3.8712473 0 0 1 -3.80881,3.87125 3.8088078,3.8712473 0 0 1 -3.8088,-3.87125 3.8088078,3.8712473 0 0 1 3.8088,-3.87124 3.8088078,3.8712473 0 0 1 3.80881,3.87124 z"
         style="display:inline;overflow:visible;visibility:visible;fill:#daa520;fill-opacity:1;stroke:none;stroke-width:0.1;stroke-linecap:butt;stroke-linejoin:miter;stroke-miterlimit:4;stroke-dasharray:none;stroke-dashoffset:0;stroke-opacity:1;marker:none;enable-background:accumulate" />
      <path
         transform="matrix(-1,0,0,1,-283.22191,-165.69867)"
         inkscape:connector-curvature="0"
         id="ellipse10561"
         d="m -396.29361,201.92705 a 3.8088078,3.8712473 0 0 1 -3.80881,3.87125 3.8088078,3.8712473 0 0 1 -3.8088,-3.87125 3.8088078,3.8712473 0 0 1 3.8088,-3.87125 3.8088078,3.8712473 0 0 1 3.80881,3.87125 z"
         style="display:inline;overflow:visible;visibility:visible;fill:#daa520;fill-opacity:1;fill-rule:evenodd;stroke:none;stroke-width:0.1;stroke-miterlimit:4;stroke-dasharray:none;stroke-opacity:1;marker:none;enable-background:accumulate" />
      <path
         transform="matrix(-1,0,0,1,-283.22191,-165.69867)"
         inkscape:connector-curvature="0"
         id="ellipse10569"
         d="m -387.35989,204.65674 a 3.8088078,3.8712473 0 0 1 -3.80881,3.87125 3.8088078,3.8712473 0 0 1 -3.80881,-3.87125 3.8088078,3.8712473 0 0 1 3.80881,-3.87125 3.8088078,3.8712473 0 0 1 3.80881,3.87125 z"
         style="display:inline;overflow:visible;visibility:visible;fill:#daa520;fill-opacity:1;stroke:none;stroke-width:0.1;stroke-linecap:butt;stroke-linejoin:miter;stroke-miterlimit:4;stroke-dasharray:none;stroke-dashoffset:0;stroke-opacity:1;marker:none;enable-background:accumulate" />
      <path
         style="display:inline;overflow:visible;visibility:visible;fill:#daa520;fill-opacity:1;stroke:none;stroke-width:0.1;stroke-linecap:butt;stroke-linejoin:miter;stroke-miterlimit:4;stroke-dasharray:none;stroke-dashoffset:0;stroke-opacity:1;marker:none;enable-background:accumulate"
         d="m 9.7723968,75.404174 a 3.8088077,3.8712472 0 0 1 -3.808804,3.871246 3.8088077,3.8712472 0 0 1 -3.8088041,-3.871246 3.8088077,3.8712472 0 0 1 3.8088041,-3.87125 3.8088077,3.8712472 0 0 1 3.808804,3.87125 z"
         id="ellipse10587"
         inkscape:connector-curvature="0" />
      <path
         style="display:inline;overflow:visible;visibility:visible;fill:#daa520;fill-opacity:1;stroke:none;stroke-width:0.1;stroke-linecap:butt;stroke-linejoin:miter;stroke-miterlimit:4;stroke-dasharray:none;stroke-dashoffset:0;stroke-opacity:1;marker:none;enable-background:accumulate"
         d="m 7.9385968,66.255374 a 3.8088077,3.8712472 0 0 1 -3.808804,3.871246 3.8088077,3.8712472 0 0 1 -3.80880409,-3.871246 3.8088077,3.8712472 0 0 1 3.80880409,-3.87125 3.8088077,3.8712472 0 0 1 3.808804,3.87125 z"
         id="ellipse10597"
         inkscape:connector-curvature="0" />
      <path
         style="display:inline;overflow:visible;visibility:visible;fill:#daa520;fill-opacity:1;stroke:none;stroke-width:0.1;stroke-linecap:butt;stroke-linejoin:miter;stroke-miterlimit:4;stroke-dasharray:none;stroke-dashoffset:0;stroke-opacity:1;marker:none;enable-background:accumulate"
         d="m 8.4921868,56.577264 a 3.8088077,3.8712472 0 0 1 -3.808804,3.871246 3.8088077,3.8712472 0 0 1 -3.80880409,-3.871246 3.8088077,3.8712472 0 0 1 3.80880409,-3.87125 3.8088077,3.8712472 0 0 1 3.808804,3.87125 z"
         id="ellipse10607"
         inkscape:connector-curvature="0" />
      <path
         style="display:inline;overflow:visible;visibility:visible;fill:#daa520;fill-opacity:1;stroke:none;stroke-width:0.1;stroke-linecap:butt;stroke-linejoin:miter;stroke-miterlimit:4;stroke-dasharray:none;stroke-dashoffset:0;stroke-opacity:1;marker:none;enable-background:accumulate"
         d="m 12.214547,47.395444 a 3.8088077,3.8712472 0 0 1 -3.8088042,3.871246 3.8088077,3.8712472 0 0 1 -3.8088041,-3.871246 3.8088077,3.8712472 0 0 1 3.8088041,-3.87125 3.8088077,3.8712472 0 0 1 3.8088042,3.87125 z"
         id="ellipse10617"
         inkscape:connector-curvature="0" />
      <path
         style="display:inline;overflow:visible;visibility:visible;fill:#daa520;fill-opacity:1;stroke:none;stroke-width:0.1;stroke-linecap:butt;stroke-linejoin:miter;stroke-miterlimit:4;stroke-dasharray:none;stroke-dashoffset:0;stroke-opacity:1;marker:none;enable-background:accumulate"
         d="m 19.162957,40.198874 a 3.8088077,3.8712472 0 0 1 -3.808804,3.871246 3.8088077,3.8712472 0 0 1 -3.808804,-3.871246 3.8088077,3.8712472 0 0 1 3.808804,-3.87125 3.8088077,3.8712472 0 0 1 3.808804,3.87125 z"
         id="ellipse10627"
         inkscape:connector-curvature="0" />
      <path
         style="display:inline;overflow:visible;visibility:visible;fill:#daa520;fill-opacity:1;stroke:none;stroke-width:0.1;stroke-linecap:butt;stroke-linejoin:miter;stroke-miterlimit:4;stroke-dasharray:none;stroke-dashoffset:0;stroke-opacity:1;marker:none;enable-background:accumulate"
         d="m 27.848467,35.483874 a 3.8088077,3.8712472 0 0 1 -3.808804,3.871246 3.8088077,3.8712472 0 0 1 -3.808804,-3.871246 3.8088077,3.8712472 0 0 1 3.808804,-3.87125 3.8088077,3.8712472 0 0 1 3.808804,3.87125 z"
         id="ellipse10637"
         inkscape:connector-curvature="0" />
      <path
         style="display:inline;overflow:visible;visibility:visible;fill:#daa520;fill-opacity:1;stroke:none;stroke-width:0.1;stroke-linecap:butt;stroke-linejoin:miter;stroke-miterlimit:4;stroke-dasharray:none;stroke-dashoffset:0;stroke-opacity:1;marker:none;enable-background:accumulate"
         d="m 37.774767,33.002294 a 3.8088077,3.8712472 0 0 1 -3.808804,3.871246 3.8088077,3.8712472 0 0 1 -3.808804,-3.871246 3.8088077,3.8712472 0 0 1 3.808804,-3.87125 3.8088077,3.8712472 0 0 1 3.808804,3.87125 z"
         id="ellipse10647"
         inkscape:connector-curvature="0" />
      <path
         style="display:inline;overflow:visible;visibility:visible;fill:#daa520;fill-opacity:1;stroke:none;stroke-width:0.1;stroke-linecap:butt;stroke-linejoin:miter;stroke-miterlimit:4;stroke-dasharray:none;stroke-dashoffset:0;stroke-opacity:1;marker:none;enable-background:accumulate"
         d="m 47.949227,33.498634 a 3.8088077,3.8712472 0 0 1 -3.808804,3.871246 3.8088077,3.8712472 0 0 1 -3.808804,-3.871246 3.8088077,3.8712472 0 0 1 3.808804,-3.87125 3.8088077,3.8712472 0 0 1 3.808804,3.87125 z"
         id="ellipse10657"
         inkscape:connector-curvature="0" />
      <path
         style="display:inline;overflow:visible;visibility:visible;fill:#daa520;fill-opacity:1;stroke:none;stroke-width:0.1;stroke-linecap:butt;stroke-linejoin:miter;stroke-miterlimit:4;stroke-dasharray:none;stroke-dashoffset:0;stroke-opacity:1;marker:none;enable-background:accumulate"
         d="m 57.627367,36.228384 a 3.8088077,3.8712472 0 0 1 -3.808804,3.871246 3.8088077,3.8712472 0 0 1 -3.808804,-3.871246 3.8088077,3.8712472 0 0 1 3.808804,-3.87125 3.8088077,3.8712472 0 0 1 3.808804,3.87125 z"
         id="ellipse10677"
         inkscape:connector-curvature="0" />
      <path
         style="display:inline;overflow:visible;visibility:visible;fill:#daa520;fill-opacity:1;stroke:none;stroke-width:0.1;stroke-linecap:butt;stroke-linejoin:miter;stroke-miterlimit:4;stroke-dasharray:none;stroke-dashoffset:0;stroke-opacity:1;marker:none;enable-background:accumulate"
         d="m 66.561037,38.958084 a 3.8088077,3.8712472 0 0 1 -3.808804,3.871246 3.8088077,3.8712472 0 0 1 -3.808804,-3.871246 3.8088077,3.8712472 0 0 1 3.808804,-3.87125 3.8088077,3.8712472 0 0 1 3.808804,3.87125 z"
         id="ellipse10687"
         inkscape:connector-curvature="0" />
      <path
         style="display:inline;overflow:visible;visibility:visible;fill:#daa520;fill-opacity:1;stroke:none;stroke-width:0.1;stroke-linecap:butt;stroke-linejoin:miter;stroke-miterlimit:4;stroke-dasharray:none;stroke-dashoffset:0;stroke-opacity:1;marker:none;enable-background:accumulate"
         d="m 75.494707,40.695154 a 3.8088077,3.8712472 0 0 1 -3.808804,3.871246 3.8088077,3.8712472 0 0 1 -3.808804,-3.871246 3.8088077,3.8712472 0 0 1 3.808804,-3.87125 3.8088077,3.8712472 0 0 1 3.808804,3.87125 z"
         id="ellipse10667"
         inkscape:connector-curvature="0" />
      <path
         inkscape:connector-curvature="0"
         id="ellipse10853"
         d="m 147.44953,99.902216 a 4.1896885,4.258372 0 0 0 4.18969,4.258374 4.1896885,4.258372 0 0 0 4.18968,-4.258374 4.1896885,4.258372 0 0 0 -4.18968,-4.258375 4.1896885,4.258372 0 0 0 -4.18969,4.258375 z"
         style="display:inline;overflow:visible;visibility:visible;fill:#daa520;fill-opacity:1;stroke:none;stroke-width:0.1;stroke-linecap:butt;stroke-linejoin:miter;stroke-miterlimit:4;stroke-dasharray:none;stroke-dashoffset:0;stroke-opacity:1;marker:none;enable-background:accumulate" />
      <path
         inkscape:connector-curvature="0"
         id="ellipse12765"
         d="m 89.539256,94.044766 a 4.1896885,4.258372 0 0 1 -4.189685,4.258371 4.1896885,4.258372 0 0 1 -4.189684,-4.258371 4.1896885,4.258372 0 0 1 4.189684,-4.258375 4.1896885,4.258372 0 0 1 4.189685,4.258375 z"
         style="display:inline;overflow:visible;visibility:visible;fill:#daa520;fill-opacity:1;stroke:none;stroke-width:0.1;stroke-linecap:butt;stroke-linejoin:miter;stroke-miterlimit:4;stroke-dasharray:none;stroke-dashoffset:0;stroke-opacity:1;marker:none;enable-background:accumulate" />
      <path
         sodipodi:nodetypes="ccccccc"
         id="path12773"
         d="m 125.69899,100.33731 -9.20931,-0.49974 -1.31085,2.009 1.08576,2.139 9.20931,0.49974 1.58738,-1.99394 -1.36229,-2.15406 z"
         style="display:inline;fill:#daa520;fill-opacity:1;stroke:none;stroke-width:0.1;stroke-miterlimit:4;stroke-dasharray:none;stroke-opacity:1"
         inkscape:connector-curvature="0" />
      <path
         inkscape:connector-curvature="0"
         id="ellipse12785"
         d="m 23.249466,99.902216 a 4.1896885,4.258372 0 0 1 -4.189685,4.258374 4.1896885,4.258372 0 0 1 -4.189684,-4.258374 4.1896885,4.258372 0 0 1 4.189684,-4.258375 4.1896885,4.258372 0 0 1 4.189685,4.258375 z"
         style="display:inline;overflow:visible;visibility:visible;fill:#daa520;fill-opacity:1;stroke:none;stroke-width:0.1;stroke-linecap:butt;stroke-linejoin:miter;stroke-miterlimit:4;stroke-dasharray:none;stroke-dashoffset:0;stroke-opacity:1;marker:none;enable-background:accumulate" />
      <path
         sodipodi:nodetypes="ccccccc"
         id="path12805"
         d="m 45.000071,100.33731 9.20931,-0.49974 1.31085,2.009 -1.085762,2.139 -9.209309,0.49974 -1.587383,-1.99394 1.362294,-2.15406 z"
         style="display:inline;fill:#daa520;fill-opacity:1;stroke:none;stroke-width:0.1;stroke-miterlimit:4;stroke-dasharray:none;stroke-opacity:1"
         inkscape:connector-curvature="0" />
      <path
         inkscape:connector-curvature="0"
         id="ellipse10723-8-8"
         d="m 89.158413,11.694338 a 3.8088077,3.8712472 0 0 1 -3.808804,3.871246 3.8088077,3.8712472 0 0 1 -3.808803,-3.871246 3.8088077,3.8712472 0 0 1 3.808803,-3.8712502 3.8088077,3.8712472 0 0 1 3.808804,3.8712502 z"
         style="display:inline;overflow:visible;visibility:visible;fill:#daa520;fill-opacity:1;stroke:none;stroke-width:0.1;stroke-linecap:butt;stroke-linejoin:miter;stroke-miterlimit:4;stroke-dasharray:none;stroke-dashoffset:0;stroke-opacity:1;marker:none;enable-background:accumulate" />
      <rect
         y="66.219917"
         x="80.5"
         height="10"
         width="9"
         id="rect4313"
         style="opacity:1;fill:none;fill-opacity:1;stroke:none;stroke-width:0.1;stroke-miterlimit:4;stroke-dasharray:none;stroke-opacity:1" />
    </g>
  </g>
</svg>
